<svg width="50" height="50" viewBox="0 0 50 50" fill="none" xmlns="http://www.w3.org/2000/svg">
<circle cx="25" cy="25" r="24" fill="white" stroke="#D5D2CE" stroke-width="2"/>
<path d="M5.378 17.628C5.504 17.634 5.669 17.64 5.873 17.646C6.077 17.652 6.278 17.655 6.476 17.655C6.758 17.655 7.028 17.652 7.286 17.646C7.544 17.64 7.727 17.637 7.835 17.637C8.465 17.637 8.939 17.769 9.257 18.033C9.575 18.297 9.734 18.636 9.734 19.05C9.734 19.26 9.689 19.467 9.599 19.671C9.515 19.869 9.371 20.052 9.167 20.22C8.969 20.382 8.702 20.514 8.366 20.616V20.634C8.84 20.694 9.209 20.808 9.473 20.976C9.743 21.138 9.932 21.33 10.04 21.552C10.148 21.774 10.202 22.008 10.202 22.254C10.202 22.596 10.115 22.899 9.941 23.163C9.773 23.421 9.527 23.625 9.203 23.775C8.879 23.925 8.492 24 8.042 24C7.91 24 7.712 23.997 7.448 23.991C7.184 23.979 6.866 23.973 6.494 23.973C6.284 23.973 6.077 23.976 5.873 23.982C5.669 23.982 5.504 23.988 5.378 24V23.82C5.582 23.808 5.735 23.784 5.837 23.748C5.945 23.712 6.017 23.64 6.053 23.532C6.089 23.424 6.107 23.262 6.107 23.046V18.582C6.107 18.36 6.089 18.198 6.053 18.096C6.017 17.988 5.945 17.916 5.837 17.88C5.735 17.838 5.582 17.814 5.378 17.808V17.628ZM7.61 17.808C7.334 17.808 7.154 17.859 7.07 17.961C6.986 18.063 6.944 18.27 6.944 18.582V23.046C6.944 23.256 6.962 23.415 6.998 23.523C7.034 23.631 7.1 23.703 7.196 23.739C7.292 23.775 7.433 23.793 7.619 23.793C8.207 23.793 8.633 23.658 8.897 23.388C9.167 23.112 9.302 22.722 9.302 22.218C9.302 21.756 9.176 21.399 8.924 21.147C8.678 20.895 8.27 20.769 7.7 20.769H6.773C6.773 20.769 6.773 20.745 6.773 20.697C6.773 20.643 6.773 20.616 6.773 20.616H7.547C7.901 20.616 8.174 20.55 8.366 20.418C8.558 20.28 8.69 20.1 8.762 19.878C8.834 19.65 8.87 19.407 8.87 19.149C8.87 18.705 8.771 18.372 8.573 18.15C8.381 17.922 8.06 17.808 7.61 17.808ZM15.4149 17.628C15.3909 17.838 15.3729 18.042 15.3609 18.24C15.3549 18.438 15.3519 18.588 15.3519 18.69C15.3519 18.798 15.3549 18.903 15.3609 19.005C15.3669 19.101 15.3729 19.182 15.3789 19.248H15.1719C15.1359 18.894 15.0849 18.615 15.0189 18.411C14.9529 18.201 14.8389 18.054 14.6769 17.97C14.5209 17.88 14.2839 17.835 13.9659 17.835H13.2189C13.0149 17.835 12.8589 17.853 12.7509 17.889C12.6489 17.919 12.5799 17.988 12.5439 18.096C12.5079 18.198 12.4899 18.36 12.4899 18.582V23.046C12.4899 23.262 12.5079 23.424 12.5439 23.532C12.5799 23.64 12.6489 23.712 12.7509 23.748C12.8589 23.778 13.0149 23.793 13.2189 23.793H13.8759C14.2539 23.793 14.5389 23.742 14.7309 23.64C14.9289 23.538 15.0699 23.373 15.1539 23.145C15.2439 22.911 15.3099 22.596 15.3519 22.2H15.5589C15.5409 22.362 15.5319 22.578 15.5319 22.848C15.5319 22.962 15.5349 23.127 15.5409 23.343C15.5529 23.553 15.5709 23.772 15.5949 24C15.2889 23.988 14.9439 23.982 14.5599 23.982C14.1759 23.976 13.8339 23.973 13.5339 23.973C13.4019 23.973 13.2309 23.973 13.0209 23.973C12.8169 23.973 12.5949 23.976 12.3549 23.982C12.1149 23.982 11.8719 23.985 11.6259 23.991C11.3799 23.991 11.1459 23.994 10.9239 24V23.82C11.1279 23.808 11.2809 23.784 11.3829 23.748C11.4909 23.712 11.5629 23.64 11.5989 23.532C11.6349 23.424 11.6529 23.262 11.6529 23.046V18.582C11.6529 18.36 11.6349 18.198 11.5989 18.096C11.5629 17.988 11.4909 17.916 11.3829 17.88C11.2809 17.838 11.1279 17.814 10.9239 17.808V17.628C11.1459 17.634 11.3799 17.64 11.6259 17.646C11.8719 17.646 12.1149 17.649 12.3549 17.655C12.5949 17.655 12.8169 17.655 13.0209 17.655C13.2309 17.655 13.4019 17.655 13.5339 17.655C13.8099 17.655 14.1219 17.655 14.4699 17.655C14.8239 17.649 15.1389 17.64 15.4149 17.628ZM13.8669 20.706C13.8669 20.706 13.8669 20.736 13.8669 20.796C13.8669 20.856 13.8669 20.886 13.8669 20.886H12.2199C12.2199 20.886 12.2199 20.856 12.2199 20.796C12.2199 20.736 12.2199 20.706 12.2199 20.706H13.8669ZM14.1279 19.518C14.1039 19.86 14.0919 20.121 14.0919 20.301C14.0979 20.481 14.1009 20.646 14.1009 20.796C14.1009 20.946 14.1039 21.111 14.1099 21.291C14.1159 21.471 14.1309 21.732 14.1549 22.074H13.9479C13.9239 21.882 13.8939 21.696 13.8579 21.516C13.8279 21.33 13.7559 21.18 13.6419 21.066C13.5339 20.946 13.3479 20.886 13.0839 20.886V20.706C13.2819 20.706 13.4319 20.667 13.5339 20.589C13.6419 20.505 13.7199 20.4 13.7679 20.274C13.8159 20.148 13.8489 20.019 13.8669 19.887C13.8849 19.749 13.9029 19.626 13.9209 19.518H14.1279ZM22.4115 24V23.82C22.6155 23.808 22.7685 23.784 22.8705 23.748C22.9785 23.712 23.0505 23.64 23.0865 23.532C23.1225 23.424 23.1405 23.262 23.1405 23.046V18.582C23.1405 18.36 23.1225 18.198 23.0865 18.096C23.0505 17.988 22.9785 17.916 22.8705 17.88C22.7685 17.838 22.6155 17.814 22.4115 17.808V17.628C22.5495 17.634 22.7235 17.64 22.9335 17.646C23.1435 17.652 23.3505 17.655 23.5545 17.655C23.7885 17.655 24.0075 17.652 24.2115 17.646C24.4155 17.64 24.5805 17.634 24.7065 17.628V17.808C24.5025 17.814 24.3465 17.838 24.2385 17.88C24.1365 17.916 24.0675 17.988 24.0315 18.096C23.9955 18.198 23.9775 18.36 23.9775 18.582V23.046C23.9775 23.262 23.9955 23.424 24.0315 23.532C24.0675 23.64 24.1365 23.712 24.2385 23.748C24.3465 23.784 24.5025 23.808 24.7065 23.82V24C24.5805 23.988 24.4155 23.982 24.2115 23.982C24.0075 23.976 23.7885 23.973 23.5545 23.973C23.3505 23.973 23.1435 23.976 22.9335 23.982C22.7235 23.982 22.5495 23.988 22.4115 24ZM18.6495 24V23.82C18.8535 23.808 19.0065 23.784 19.1085 23.748C19.2165 23.712 19.2885 23.64 19.3245 23.532C19.3605 23.424 19.3785 23.262 19.3785 23.046V18.582C19.3785 18.36 19.3605 18.198 19.3245 18.096C19.2885 17.988 19.2165 17.916 19.1085 17.88C19.0065 17.838 18.8535 17.814 18.6495 17.808V17.628C18.7755 17.634 18.9405 17.64 19.1445 17.646C19.3485 17.652 19.5675 17.655 19.8015 17.655C20.0115 17.655 20.2185 17.652 20.4225 17.646C20.6325 17.64 20.8065 17.634 20.9445 17.628V17.808C20.7405 17.814 20.5845 17.838 20.4765 17.88C20.3745 17.916 20.3055 17.988 20.2695 18.096C20.2335 18.198 20.2155 18.36 20.2155 18.582V23.046C20.2155 23.262 20.2335 23.424 20.2695 23.532C20.3055 23.64 20.3745 23.712 20.4765 23.748C20.5845 23.784 20.7405 23.808 20.9445 23.82V24C20.8065 23.988 20.6325 23.982 20.4225 23.982C20.2185 23.976 20.0115 23.973 19.8015 23.973C19.5675 23.973 19.3485 23.976 19.1445 23.982C18.9405 23.982 18.7755 23.988 18.6495 24ZM19.9005 20.886V20.706H23.4555V20.886H19.9005ZM28.3517 17.502C28.9217 17.502 29.4197 17.631 29.8457 17.889C30.2777 18.147 30.6107 18.519 30.8447 19.005C31.0847 19.485 31.2047 20.07 31.2047 20.76C31.2047 21.432 31.0817 22.02 30.8357 22.524C30.5957 23.028 30.2597 23.421 29.8277 23.703C29.3957 23.985 28.9007 24.126 28.3427 24.126C27.7727 24.126 27.2717 23.997 26.8397 23.739C26.4137 23.481 26.0807 23.109 25.8407 22.623C25.6067 22.137 25.4897 21.552 25.4897 20.868C25.4897 20.196 25.6127 19.608 25.8587 19.104C26.1047 18.6 26.4407 18.207 26.8667 17.925C27.2987 17.643 27.7937 17.502 28.3517 17.502ZM28.3157 17.664C27.9257 17.664 27.5867 17.799 27.2987 18.069C27.0107 18.339 26.7857 18.711 26.6237 19.185C26.4677 19.659 26.3897 20.208 26.3897 20.832C26.3897 21.468 26.4767 22.023 26.6507 22.497C26.8307 22.965 27.0707 23.328 27.3707 23.586C27.6767 23.838 28.0127 23.964 28.3787 23.964C28.7687 23.964 29.1077 23.829 29.3957 23.559C29.6837 23.289 29.9057 22.917 30.0617 22.443C30.2237 21.963 30.3047 21.414 30.3047 20.796C30.3047 20.154 30.2147 19.599 30.0347 19.131C29.8607 18.663 29.6237 18.303 29.3237 18.051C29.0237 17.793 28.6877 17.664 28.3157 17.664ZM39.0743 17.628V17.808C38.8703 17.814 38.7143 17.838 38.6063 17.88C38.5043 17.916 38.4353 17.988 38.3993 18.096C38.3633 18.198 38.3453 18.36 38.3453 18.582V23.046C38.3453 23.262 38.3633 23.424 38.3993 23.532C38.4353 23.64 38.5043 23.712 38.6063 23.748C38.7143 23.784 38.8703 23.808 39.0743 23.82V24C38.9363 23.988 38.7623 23.982 38.5523 23.982C38.3483 23.976 38.1413 23.973 37.9313 23.973C37.6973 23.973 37.4783 23.976 37.2743 23.982C37.0703 23.982 36.9053 23.988 36.7793 24V23.82C36.9833 23.808 37.1363 23.784 37.2383 23.748C37.3463 23.712 37.4183 23.64 37.4543 23.532C37.4903 23.424 37.5083 23.262 37.5083 23.046V18.096L37.5443 18.123L35.3393 24.045H35.1953L32.9273 18.204V22.956C32.9273 23.172 32.9453 23.343 32.9813 23.469C33.0233 23.589 33.1013 23.676 33.2153 23.73C33.3353 23.778 33.5123 23.808 33.7463 23.82V24C33.6383 23.988 33.4973 23.982 33.3233 23.982C33.1493 23.976 32.9843 23.973 32.8283 23.973C32.6783 23.973 32.5253 23.976 32.3693 23.982C32.2193 23.982 32.0933 23.988 31.9913 24V23.82C32.1953 23.808 32.3483 23.778 32.4503 23.73C32.5583 23.676 32.6303 23.589 32.6663 23.469C32.7023 23.343 32.7203 23.172 32.7203 22.956V18.582C32.7203 18.36 32.7023 18.198 32.6663 18.096C32.6303 17.988 32.5583 17.916 32.4503 17.88C32.3483 17.838 32.1953 17.814 31.9913 17.808V17.628C32.0933 17.634 32.2193 17.64 32.3693 17.646C32.5253 17.652 32.6783 17.655 32.8283 17.655C32.9603 17.655 33.0953 17.652 33.2333 17.646C33.3773 17.64 33.4973 17.634 33.5933 17.628L35.6363 23.01L35.4833 23.082L37.5083 17.655C37.5803 17.655 37.6493 17.655 37.7153 17.655C37.7873 17.655 37.8593 17.655 37.9313 17.655C38.1413 17.655 38.3483 17.652 38.5523 17.646C38.7623 17.64 38.9363 17.634 39.0743 17.628ZM44.3221 17.628C44.2981 17.838 44.2801 18.042 44.2681 18.24C44.2621 18.438 44.2591 18.588 44.2591 18.69C44.2591 18.798 44.2621 18.903 44.2681 19.005C44.2741 19.101 44.2801 19.182 44.2861 19.248H44.0791C44.0431 18.894 43.9921 18.615 43.9261 18.411C43.8601 18.201 43.7461 18.054 43.5841 17.97C43.4281 17.88 43.1911 17.835 42.8731 17.835H42.1261C41.9221 17.835 41.7661 17.853 41.6581 17.889C41.5561 17.919 41.4871 17.988 41.4511 18.096C41.4151 18.198 41.3971 18.36 41.3971 18.582V23.046C41.3971 23.262 41.4151 23.424 41.4511 23.532C41.4871 23.64 41.5561 23.712 41.6581 23.748C41.7661 23.778 41.9221 23.793 42.1261 23.793H42.7831C43.1611 23.793 43.4461 23.742 43.6381 23.64C43.8361 23.538 43.9771 23.373 44.0611 23.145C44.1511 22.911 44.2171 22.596 44.2591 22.2H44.4661C44.4481 22.362 44.4391 22.578 44.4391 22.848C44.4391 22.962 44.4421 23.127 44.4481 23.343C44.4601 23.553 44.4781 23.772 44.5021 24C44.1961 23.988 43.8511 23.982 43.4671 23.982C43.0831 23.976 42.7411 23.973 42.4411 23.973C42.3091 23.973 42.1381 23.973 41.9281 23.973C41.7241 23.973 41.5021 23.976 41.2621 23.982C41.0221 23.982 40.7791 23.985 40.5331 23.991C40.2871 23.991 40.0531 23.994 39.8311 24V23.82C40.0351 23.808 40.1881 23.784 40.2901 23.748C40.3981 23.712 40.4701 23.64 40.5061 23.532C40.5421 23.424 40.5601 23.262 40.5601 23.046V18.582C40.5601 18.36 40.5421 18.198 40.5061 18.096C40.4701 17.988 40.3981 17.916 40.2901 17.88C40.1881 17.838 40.0351 17.814 39.8311 17.808V17.628C40.0531 17.634 40.2871 17.64 40.5331 17.646C40.7791 17.646 41.0221 17.649 41.2621 17.655C41.5021 17.655 41.7241 17.655 41.9281 17.655C42.1381 17.655 42.3091 17.655 42.4411 17.655C42.7171 17.655 43.0291 17.655 43.3771 17.655C43.7311 17.649 44.0461 17.64 44.3221 17.628ZM42.7741 20.706C42.7741 20.706 42.7741 20.736 42.7741 20.796C42.7741 20.856 42.7741 20.886 42.7741 20.886H41.1271C41.1271 20.886 41.1271 20.856 41.1271 20.796C41.1271 20.736 41.1271 20.706 41.1271 20.706H42.7741ZM43.0351 19.518C43.0111 19.86 42.9991 20.121 42.9991 20.301C43.0051 20.481 43.0081 20.646 43.0081 20.796C43.0081 20.946 43.0111 21.111 43.0171 21.291C43.0231 21.471 43.0381 21.732 43.0621 22.074H42.8551C42.8311 21.882 42.8011 21.696 42.7651 21.516C42.7351 21.33 42.6631 21.18 42.5491 21.066C42.4411 20.946 42.2551 20.886 41.9911 20.886V20.706C42.1891 20.706 42.3391 20.667 42.4411 20.589C42.5491 20.505 42.6271 20.4 42.6751 20.274C42.7231 20.148 42.7561 20.019 42.7741 19.887C42.7921 19.749 42.8101 19.626 42.8281 19.518H43.0351Z" fill="black"/>
<path d="M22 37.9917C18.5442 30.6301 13.6378 26.4432 10.9958 28.5403C8.35373 30.6374 11.1245 34.7267 17.468 41" stroke="black"/>
<path d="M21 38.5732C19.1048 34.813 14.449 29.9288 13 31C11.551 32.0712 14.9623 36.7957 18.4412 40" stroke="#376A63"/>
<path d="M28 37.9917C31.4558 30.6301 36.3622 26.4432 39.0042 28.5403C41.6463 30.6374 38.8755 34.7267 32.532 41" stroke="black"/>
<path d="M29 38.5732C30.8952 34.813 35.551 29.9288 37 31C38.449 32.0712 35.0377 36.7957 31.5588 40" stroke="#376A63"/>
</svg>
